
<svg width="195px" height="544px" viewBox="-16 128 195 544" version="1.1" xmlns="http://www.w3.org/2000/svg" xmlns:xlink="http://www.w3.org/1999/xlink">
    <!-- Generator: Sketch 41.2 (35397) - http://www.bohemiancoding.com/sketch -->
    <desc>Created with Sketch.</desc>
    <defs></defs>
    <g id="running-shoe" stroke="none" stroke-width="1" fill="none" fill-rule="evenodd" width="100" transform="translate(-15.000000, 128.000000)">
        <g id="shoe" transform="translate(0.000000, 0.856000)">
            <path d="M19.5938,283.8935 C28.3308,324.0095 11.6788,383.0965 35.4228,455.5465 C58.7678,526.7795 98.4698,541.9995 117.6148,541.9995 C137.0568,541.9995 175.0808,522.7205 187.0208,451.8935 C194.1848,409.3975 177.6388,324.5295 182.1508,280.8135 C186.9598,234.2055 193.7188,187.4625 193.7188,163.3095 C193.7188,78.7435 166.6378,0.1435 123.0948,0.1435 C79.5508,0.1435 20.8108,33.6295 0.7198,173.6595 C-3.0332,199.8185 8.5768,233.3095 19.5938,283.8935 Z" id="Fill-1" fill="#E97323"></path>
            <path d="M28.46,388.9667 C37.197,429.0827 30.304,401.2487 50.228,474.8417 C67.691,539.3467 98.335,542.9997 117.48,542.9997 C136.922,542.9997 163.987,515.1967 175.927,444.3697 C178.355,429.9697 187.107,401.3387 176.062,376.1817 C173.662,370.7137 168.147,362.1787 162.228,348.0537 C149.35,317.3227 53.907,309.0217 35.423,345.7397 C27.148,362.1787 27.038,382.4377 28.46,388.9667" id="rim" fill="#EFDFAD"></path>
            <path d="M34.2056,194.7509 C35.0926,199.3739 38.8876,196.2389 42.1206,182.5749 C45.3526,168.9099 48.0246,144.7149 60.6836,132.6509 C70.9016,122.9109 85.7186,122.1159 106.0466,122.3009 C126.4196,122.4859 143.5836,121.9649 153.5356,132.6509 C167.2746,147.4029 167.4186,175.7479 169.3646,189.8799 C170.6426,199.1609 175.2306,199.2769 176.0616,196.0519 C205.8946,80.2919 166.6386,1.7529 123.0946,1.7529 C79.5506,1.7529 8.0256,58.3739 34.2056,194.7509" id="front" fill="#EFDFAD"></path>
            <path d="M45.2447,400.4569 C52.3907,434.7269 46.7527,410.9489 63.0467,473.8159 C77.3277,528.9209 102.3897,532.0409 118.0467,532.0409 C133.9467,532.0409 158.5577,504.1049 165.1027,421.7979 C166.0907,409.3759 162.2277,397.4899 156.5797,380.4429 C154.9867,375.6339 157.7207,360.7599 152.8797,348.6929 C143.7377,325.9039 69.6647,322.3679 44.0277,343.9139 C40.1327,347.1869 50.8107,356.8229 48.8177,360.9609 C42.0497,375.0029 44.0817,394.8789 45.2447,400.4569" id="inner-cushion" fill="#E97323"></path>
            <path d="M60.9263,354.3378 C76.8233,477.2468 89.8563,515.6028 114.5703,515.6028 C139.2843,515.6028 145.0113,409.9208 145.0113,367.0488 C145.0113,324.1778 55.4263,311.8208 60.9263,354.3378" id="sole" fill="#486666"></path>
            <path d="M35.4229,345.7401 C35.4229,345.7401 82.3899,350.9201 98.8259,351.2191 C114.0909,351.4981 162.2279,348.0531 162.2279,348.0531 C162.2279,348.0531 140.7619,276.5451 148.8799,156.8091 C148.8799,156.8091 117.4849,139.4071 107.5479,139.3471 C98.0479,139.2901 65.4589,155.5831 65.4589,155.5831 C58.9649,255.4301 35.4229,345.7401 35.4229,345.7401" id="tongue" fill="#EFDFAD"></path>
        </g>
        <g id="laces" transform="translate(36.000000, 157.856000)">
            <path d="M105.9678,15.4852 C105.9678,11.8822 109.9258,7.3972 112.2308,7.3972 C114.5368,7.3972 116.9268,11.8822 116.9268,15.4852 C116.9268,19.0882 115.0578,23.0522 112.7518,23.0522 C110.4468,23.0522 105.9678,19.0882 105.9678,15.4852 M102.9238,15.6302 C102.9238,21.2342 109.8898,27.4012 113.4768,27.4012 C117.0638,27.4012 119.9708,21.2342 119.9708,15.6302 C119.9708,10.0262 116.2538,3.0472 112.6668,3.0472 C109.0798,3.0472 102.9238,10.0262 102.9238,15.6302" id="Fill-14" fill="#5B4B42"></path>
            <path d="M108.5435,53.6996 C108.1825,50.1156 110.9675,45.3256 112.8515,45.1356 C114.7355,44.9466 117.1395,49.2126 117.5005,52.7976 C117.8615,56.3816 116.7315,60.4796 114.8465,60.6696 C112.9625,60.8596 108.9045,57.2836 108.5435,53.6996 M106.0705,54.0946 C106.6315,59.6706 112.9435,65.2326 115.8755,64.9366 C118.8065,64.6416 120.5645,58.2666 120.0025,52.6906 C119.4405,47.1146 115.7025,40.4776 112.7715,40.7736 C109.8405,41.0686 105.5085,48.5186 106.0705,54.0946" id="Fill-16" fill="#5B4B42"></path>
            <path d="M110.9395,91.9696 C110.8125,88.3796 112.8655,84.8496 114.7605,84.7826 C116.6555,84.7156 118.7785,88.0606 118.9055,91.6506 C119.0325,95.2406 118.3645,98.2616 116.4705,98.3296 C114.5755,98.3966 111.0665,95.5596 110.9395,91.9696 M108.4425,92.2026 C108.6405,97.7866 114.5835,103.7286 117.5315,103.6246 C120.4795,103.5206 122.6505,97.2906 122.4535,91.7066 C122.2555,86.1216 118.9545,79.2766 116.0065,79.3816 C113.0585,79.4856 108.2445,86.6176 108.4425,92.2026" id="Fill-18" fill="#5B4B42"></path>
            <path d="M113.5186,128.451 C113.3916,124.861 115.1876,121.341 116.8586,121.281 C118.5296,121.222 119.2346,125.028 119.3616,128.618 C119.4896,132.208 120.0936,134.774 118.4226,134.833 C116.7516,134.892 113.6456,132.041 113.5186,128.451 M111.3176,128.673 C111.5156,134.258 116.7816,140.224 119.3806,140.132 C121.9786,140.04 123.8686,133.82 123.6706,128.236 C123.4736,122.652 120.5336,115.793 117.9346,115.886 C115.3346,115.977 111.1206,123.089 111.3176,128.673" id="Fill-20" fill="#5B4B42"></path>
            <path d="M117.5557,164.41 C118.0827,160.369 120.7587,156.766 122.6477,157.012 C124.5377,157.259 124.6207,161.649 124.0937,165.69 C123.5667,169.731 123.7677,172.715 121.8777,172.469 C119.9887,172.222 117.0287,168.451 117.5557,164.41 M115.0397,164.248 C114.2207,170.533 119.0277,178.194 121.9667,178.577 C124.9057,178.961 128.1897,172.354 129.0097,166.069 C129.8287,159.783 125.9537,154.472 123.0147,154.089 C120.0767,153.706 115.8597,157.962 115.0397,164.248" id="Fill-22" fill="#5B4B42"></path>
            <path d="M27.2257,20.9169 C24.9257,20.7579 23.3357,16.6729 23.5847,13.0799 C23.8337,9.4849 26.5287,5.1759 28.8297,5.3349 C31.1287,5.4949 34.7667,10.2439 34.5177,13.8379 C34.2677,17.4319 29.5257,21.0769 27.2257,20.9169 M28.6957,0.9669 C25.1177,0.7189 20.9257,7.4229 20.5387,13.0129 C20.1497,18.6039 22.6237,24.9569 26.2017,25.2059 C29.7797,25.4539 37.1567,19.7839 37.5437,14.1929 C37.9327,8.6029 32.2737,1.2149 28.6957,0.9669" id="Fill-24" fill="#5B4B42"></path>
            <path d="M22.5318,58.2992 C20.6648,57.9792 19.8218,53.8132 20.4298,50.2622 C21.0378,46.7112 23.7308,42.6212 25.5968,42.9412 C27.4638,43.2602 29.9108,48.2312 29.3028,51.7822 C28.6938,55.3332 24.3988,58.6192 22.5318,58.2992 M25.9788,38.5942 C23.0748,38.0962 18.8868,44.4592 17.9408,49.9822 C16.9938,55.5062 18.3068,61.9872 21.2108,62.4852 C24.1148,62.9832 30.7958,57.8712 31.7418,52.3472 C32.6888,46.8242 28.8838,39.0912 25.9788,38.5942" id="Fill-26" fill="#5B4B42"></path>
            <path d="M18.3053,95.7562 C16.4193,95.5582 15.9623,92.4972 16.3383,88.9252 C16.7133,85.3522 19.0623,82.1622 20.9483,82.3602 C22.8343,82.5592 24.6383,86.2222 24.2633,89.7952 C23.8873,93.3672 20.1913,95.9542 18.3053,95.7562 M20.0793,76.8852 C17.1463,76.5772 13.3783,83.1772 12.7953,88.7352 C12.2113,94.2922 13.9463,100.6572 16.8803,100.9652 C19.8133,101.2732 26.1533,95.7572 26.7373,90.2002 C27.3213,84.6422 23.0133,77.1942 20.0793,76.8852" id="Fill-28" fill="#5B4B42"></path>
            <path d="M13.8306,132.037 C12.1676,131.862 12.9476,129.345 13.3236,125.772 C13.6986,122.2 14.6656,118.452 16.3286,118.626 C17.9916,118.801 19.5396,122.437 19.1636,126.01 C18.7886,129.582 15.4936,132.212 13.8306,132.037 M15.6296,113.169 C13.0426,112.897 9.6346,119.536 9.0516,125.093 C8.4676,130.65 9.9216,136.985 12.5076,137.257 C15.0946,137.529 20.7606,131.942 21.3446,126.384 C21.9286,120.827 18.2156,113.441 15.6296,113.169" id="Fill-30" fill="#5B4B42"></path>
            <path d="M8.1827,169.3583 C6.2927,169.5963 6.5047,166.6143 5.9947,162.5713 C5.4837,158.5283 5.5847,154.1373 7.4747,153.8993 C9.3647,153.6593 12.0267,157.2743 12.5367,161.3173 C13.0477,165.3593 10.0737,169.1193 8.1827,169.3583 M7.1197,150.9743 C4.1787,151.3453 0.2827,156.6403 1.0777,162.9293 C1.8717,169.2183 5.1297,175.8373 8.0697,175.4663 C11.0107,175.0943 15.8487,167.4533 15.0537,161.1643 C14.2597,154.8753 10.0597,150.6033 7.1197,150.9743" id="Fill-32" fill="#5B4B42"></path>
            <polyline id="Fill-34" fill="#EFC34E" points="106.7633 10.7831 25.6323 47.3131 29.6323 56.1951 110.7623 19.6651"></polyline>
            <polyline id="Fill-36" fill="#EFC34E" points="32.2847 17.4169 107.3907 56.0839 111.8497 47.4239 36.7437 8.7559"></polyline>
            <path d="M109.0338,47.0326 C109.0128,47.0376 100.4948,49.1946 90.6088,51.9356 C85.6648,53.3066 80.3798,54.8226 75.6218,56.2976 C73.2418,57.0346 70.9938,57.7616 68.9748,58.4596 C66.9528,59.1596 65.1668,59.8256 63.6588,60.4736 C62.1298,61.1316 60.3678,61.9856 58.3998,62.9926 C54.9608,64.7556 50.9078,66.9856 46.7338,69.3516 C34.2238,76.4446 20.6488,84.7576 20.6238,84.7726 L25.7108,93.0796 C25.7108,93.0796 25.8298,93.0076 26.0608,92.8666 C27.7928,91.8096 35.7238,86.9836 44.4708,81.8896 C48.8448,79.3436 53.4218,76.7286 57.5128,74.4946 C59.5568,73.3776 61.4808,72.3546 63.1848,71.4876 C64.8868,70.6206 66.3768,69.9076 67.5068,69.4226 C68.6668,68.9226 70.2788,68.3156 72.1588,67.6656 C75.4538,66.5256 79.5858,65.2446 83.8988,63.9766 C90.3718,62.0726 97.2658,60.1936 102.5318,58.7946 C105.1648,58.0946 107.3918,57.5136 108.9588,57.1086 C109.7418,56.9066 110.3608,56.7476 110.7818,56.6396 C111.2038,56.5316 111.4248,56.4756 111.4248,56.4756 L109.0338,47.0326 Z" id="Fill-38" fill="#EFC34E"></path>
            <path d="M26.0889,56.3739 C26.0899,56.3739 26.5119,56.5149 27.2849,56.7749 C29.9919,57.6829 36.9689,60.0329 44.8439,62.7509 C52.7139,65.4679 61.4969,68.5589 67.7499,70.9219 C68.9129,71.3599 70.5169,72.0749 72.3539,72.9729 C75.5759,74.5459 79.5399,76.6829 83.6309,78.9859 C89.7739,82.4439 96.2229,86.2839 101.1239,89.2529 C103.5749,90.7379 105.6399,92.0059 107.0909,92.9019 C107.8169,93.3489 108.3879,93.7039 108.7769,93.9459 C108.9719,94.0669 109.1209,94.1599 109.2209,94.2219 C109.3209,94.2849 109.3699,94.3149 109.3699,94.3149 L114.5369,86.0569 C114.5139,86.0429 106.6479,81.1219 97.3539,75.6549 C92.7049,72.9199 87.7009,70.0489 83.1149,67.5749 C80.8209,66.3369 78.6319,65.1989 76.6289,64.2199 C74.6209,63.2409 72.8109,62.4219 71.1929,61.8099 C63.8419,59.0319 53.3679,55.3749 44.6959,52.3979 C36.0289,49.4239 29.1829,47.1369 29.1749,47.1339 L26.0889,56.3739 Z" id="Fill-40" fill="#EFC34E"></path>
            <path d="M111.5396,84.7943 C111.4586,84.8013 102.8596,85.5343 91.6926,87.3423 C86.1076,88.2473 79.8796,89.4193 73.7296,90.9183 C67.5766,92.4193 61.5086,94.2333 56.1726,96.4933 C45.5356,101.0063 35.6126,106.8783 28.2896,111.6363 C20.9726,116.3943 16.2706,120.0403 16.1916,120.1013 L22.1626,127.7973 L22.1686,127.7923 C22.3706,127.6363 26.9526,124.1073 33.9296,119.5883 C40.9026,115.0703 50.2836,109.5673 59.9746,105.4613 C64.5826,103.5053 70.2216,101.7963 76.0356,100.3823 C84.7626,98.2553 93.8926,96.7733 100.8056,95.8353 C104.2626,95.3653 107.1686,95.0303 109.2026,94.8133 C110.2186,94.7053 111.0176,94.6263 111.5586,94.5743 C111.8286,94.5483 112.0346,94.5293 112.1716,94.5173 L112.3236,94.5033 L112.3676,94.5003 L111.5396,84.7943 Z" id="Fill-42" fill="#EFC34E"></path>
            <path d="M22.6646,93.7709 L22.6776,93.7719 C23.0546,93.8119 30.8786,94.6529 41.5606,96.7509 C52.2376,98.8419 65.7876,102.2129 77.4816,107.1769 C86.2186,110.8729 94.5146,116.5189 100.5396,121.2329 C103.5546,123.5889 106.0096,125.7099 107.6976,127.2289 C108.5406,127.9879 109.1926,128.5969 109.6276,129.0099 C109.8456,129.2159 110.0086,129.3739 110.1136,129.4769 L110.2286,129.5889 L110.2536,129.6129 L110.2576,129.6169 L111.5596,128.3049 L110.2556,129.6149 L110.2576,129.6169 L111.5596,128.3049 L110.2556,129.6149 L117.1256,122.7089 C117.0256,122.6109 112.9906,118.6009 106.5366,113.5579 C100.0756,108.5159 91.2176,102.4269 81.2836,98.2079 C68.3856,92.7479 54.0726,89.2629 42.9126,87.0889 C31.7576,84.9229 23.7716,84.0929 23.6696,84.0819 L22.6646,93.7709 Z" id="Fill-44" fill="#EFC34E"></path>
            <path d="M115.9166,121.9984 C115.8446,122.0004 102.8956,122.2584 86.5396,123.7004 C78.3586,124.4224 69.3276,125.4404 60.5966,126.8824 C51.8606,128.3284 43.4416,130.1814 36.3626,132.6734 C27.6156,135.7534 21.2286,140.0464 16.7466,144.1444 C12.2606,148.2444 9.6706,152.1324 8.3716,154.4394 L10.2696,155.5094 L8.8086,153.8714 C8.7476,153.9304 8.5876,154.0654 8.3716,154.4394 L10.2696,155.5094 L8.8086,153.8714 L9.2706,154.3894 L8.8516,153.8354 L8.8086,153.8714 L9.2706,154.3894 L8.8516,153.8354 L8.8916,153.8884 L8.8526,153.8344 L8.8516,153.8354 L8.8916,153.8884 L8.8526,153.8344 L8.7136,153.9144 L8.6736,153.9334 L9.5266,155.8744 L8.7496,153.9024 L8.6736,153.9334 L9.5266,155.8744 L8.7496,153.9024 L12.3186,162.9664 C12.4896,162.8964 13.0866,162.6614 13.9046,162.1654 C14.3136,161.9134 14.7826,161.5934 15.2916,161.1424 C15.7956,160.6874 16.3576,160.0994 16.8586,159.2214 C17.7406,157.6544 19.7216,154.6214 23.3166,151.3364 C26.9166,148.0524 32.1226,144.5004 39.6016,141.8604 C45.8146,139.6654 53.7966,137.8754 62.1846,136.4934 C74.7746,134.4124 88.3046,133.2144 98.6476,132.5474 C103.8206,132.2134 108.1996,132.0104 111.2786,131.8914 C112.8186,131.8324 114.0326,131.7934 114.8586,131.7694 C115.2716,131.7574 115.5886,131.7494 115.7996,131.7444 C115.9056,131.7424 115.9846,131.7404 116.0366,131.7394 L116.1106,131.7374 L115.9166,121.9984 Z" id="Fill-46" fill="#EFC34E"></path>
            <path d="M19.9342,128.7606 L19.7092,127.3336 L19.9322,128.7606 L19.9342,128.7606 L19.7092,127.3336 L19.9322,128.7606 C20.0012,128.7486 27.8512,127.5366 39.2222,127.5376 C47.3132,127.5366 57.1852,128.1526 67.2772,130.2086 C77.3732,132.2606 87.6692,135.7546 96.6892,141.3966 C97.4092,141.8446 98.2122,142.4886 99.0462,143.2996 C100.5082,144.7166 102.0472,146.6366 103.5412,148.7556 C104.6642,150.3446 105.7692,152.0426 106.8482,153.7296 C108.4702,156.2646 110.0142,158.7596 111.5942,160.9206 C112.3902,162.0046 113.1922,163.0096 114.1082,163.9326 C114.5682,164.3946 115.0582,164.8366 115.6202,165.2536 C116.1822,165.6676 116.8162,166.0626 117.5852,166.3796 L121.2912,157.3706 L120.8352,158.4776 L121.4432,157.4446 C121.4252,157.4336 121.3762,157.4066 121.2912,157.3706 L120.8352,158.4776 L121.4432,157.4446 L121.2812,157.7196 L121.4512,157.4486 L121.4432,157.4446 L121.2812,157.7196 L121.4512,157.4486 L121.4382,157.4406 C121.3522,157.3876 120.9562,157.0446 120.4752,156.4716 C119.6162,155.4706 118.4742,153.8176 117.2272,151.8826 C115.3412,148.9696 113.1832,145.4156 110.7102,142.0416 C109.4712,140.3526 108.1482,138.7026 106.6982,137.1836 C105.2452,135.6666 103.6642,134.2716 101.8522,133.1366 C91.5392,126.6956 80.1472,122.8896 69.2202,120.6626 C58.2892,118.4396 47.8042,117.7976 39.2222,117.7966 C26.9742,117.7986 18.6012,119.1106 18.4202,119.1376 L19.9342,128.7606 Z" id="Fill-48" fill="#EFC34E"></path>
            <polyline id="Fill-50" fill="#EFC34E" points="108.8995 10.3558 32.8425 8.2178 32.5685 17.9558 108.6265 20.0928"></polyline>
        </g>
        <g id="logo" transform="translate(65.000000, 307.856000)">
            <path d="M22.4038,0.850963309 C22.2342797,0.826041474 21.9665545,0.80111964 21.616992,0.80111964 C20.9751531,0.80111964 20.5320621,0.925728811 20.2584914,1.19331061 C20.0597435,1.39924366 19.9252964,1.67338384 19.9252964,2.0340946 C19.9252964,2.65714045 20.3625418,2.98768268 20.7354865,3.08737001 L20.7354865,3.09917509 C20.3216231,3.26182285 20.0714346,3.61597524 20.0714346,4.02128296 C20.0714346,4.35182518 20.1930215,4.60104353 20.397615,4.76237961 C20.6431271,4.97487104 20.9693076,5.068 21.4766994,5.068 C21.8321074,5.068 22.1828391,5.03127309 22.4038,4.98011774 L22.4038,0.850963309 Z M21.8964082,4.61284861 C21.8157399,4.63252374 21.6812928,4.6508872 21.4474717,4.6508872 C20.9342344,4.6508872 20.5846719,4.4580709 20.5846719,3.96619259 C20.5846719,3.56088487 20.8991612,3.26182285 21.4357807,3.26182285 L21.8964082,3.26182285 L21.8964082,4.61284861 Z M21.8964082,2.84995675 L21.4766994,2.84995675 C20.9225434,2.84995675 20.4619158,2.61385516 20.4619158,2.04065298 C20.4619158,1.43072387 20.9459255,1.22479082 21.4708538,1.22479082 C21.6508961,1.22479082 21.7970343,1.2313492 21.8964082,1.24971266 L21.8964082,2.84995675 Z" id="b" stroke="#486666" stroke-width="0.188" fill="#486666"></path>
            <path d="M17.411135,0.838895894 L16.9037433,0.838895894 L16.9037433,2.65818979 L16.4255791,2.65818979 C15.9649516,2.63982634 15.7545126,2.42077653 15.637602,1.84232764 C15.5277061,1.31896912 15.4400232,0.956946688 15.3757224,0.838895894 L14.850794,0.838895894 C14.9326314,1.00154365 15.0261599,1.4055397 15.1535923,1.99054697 C15.2471208,2.42733491 15.4283321,2.72639692 15.7311305,2.83788934 L15.7311305,2.85756447 C15.3172671,3.0057838 14.9910867,3.37436461 14.9910867,3.92789167 C14.9910867,4.25187551 15.1021517,4.53913244 15.2997305,4.72539036 C15.5452427,4.96280363 15.8948052,5.06773766 16.4372702,5.06773766 C16.7868327,5.06773766 17.1551009,5.03756913 17.411135,4.98116708 L17.411135,0.838895894 Z M16.9037433,4.60078119 C16.823075,4.62570303 16.6477092,4.65062486 16.402197,4.65062486 C15.8655776,4.64406648 15.4984785,4.40796489 15.4984785,3.86624292 C15.4984785,3.38616969 15.8421955,3.06874422 16.3846604,3.06874422 L16.9037433,3.06874422 L16.9037433,4.60078119 Z" id="r" stroke="#486666" stroke-width="0.188" fill="#486666"></path>
            <polygon id="e" stroke="#486666" stroke-width="0.188" fill="#486666" points="10.4067903 3.25526448 11.9348111 3.25526448 11.9348111 4.58268007 10.3191074 4.58268007 10.3191074 5.03651979 12.4422029 5.03651979 12.4422029 0.839158229 10.2314244 0.839158229 10.2314244 1.29299795 11.9348111 1.29299795 11.9348111 2.80667146 10.4067903 2.80667146"></polygon>
            <polygon id="w" fill="#486666" points="2.5689 0.7118 4.6749 3.0528 5.9589 1.6828 7.9079 4.9448 7.1849 5.3368 5.8089 3.0318 4.6619 4.2558 2.8039 2.1898 1.3929 5.2978 0.6299 4.9838"></polygon>
            <polygon id="mountains" fill="#486666" points="61.253 23.6708 55.533 33.0448 51.243 28.3028 44.094 36.1778 38.375 23.6708"></polygon>
            <polygon id="top-line" fill="#486666" points="0.554 24.198 72.577 24.198 72.577 23.143 0.554 23.143"></polygon>
            <polygon id="bottom-line" fill="#486666" points="24.921 4.121 72.272 4.121 72.272 3.066 24.921 3.066"></polygon>
            <polygon id="T" fill="#E97323" points="67.0841 8.4867 68.4721 8.4867 68.4721 19.2367 72.5481 19.2367 72.5481 20.4887 63.0071 20.4887 63.0071 19.2367 67.0841 19.2367"></polygon>
            <path d="M30.919,19.4433 C33.695,19.4433 35.672,17.2493 35.672,14.5063 C35.672,11.7613 33.661,9.5323 30.884,9.5323 C28.109,9.5323 26.131,11.7273 26.131,14.4713 C26.131,17.2143 28.144,19.4433 30.919,19.4433 M30.919,8.2803 C34.614,8.2803 37.095,11.1443 37.095,14.4713 C37.095,17.7973 34.58,20.6953 30.884,20.6953 C27.19,20.6953 24.709,17.8323 24.709,14.5063 C24.709,11.1783 27.224,8.2803 30.919,8.2803" id="O" fill="#E97323"></path>
            <path d="M21.1031,17.3749 L22.1481,18.0959 C21.0131,19.7079 19.8241,20.6499 17.6081,20.6499 C15.3201,20.6499 13.6981,19.2099 13.6981,17.2379 C13.6981,15.4719 14.6711,14.3919 16.8871,12.5579 L20.2561,9.7109 L13.5721,9.7109 L13.5721,8.4759 L22.3821,8.4759 L22.3821,9.5219 L17.8061,13.3629 C15.8781,15.0099 15.1761,15.9359 15.1761,17.1359 C15.1761,18.5409 16.3471,19.4329 17.7161,19.4329 C19.1571,19.4329 20.0941,18.7129 21.1031,17.3749" id="2" fill="#E97323"></path>
            <path d="M8.1817,17.3749 L9.2267,18.0959 C8.0917,19.7079 6.9027,20.6499 4.6867,20.6499 C2.3987,20.6499 0.7777,19.2099 0.7777,17.2379 C0.7777,15.4719 1.7497,14.3919 3.9657,12.5579 L7.3347,9.7109 L0.6517,9.7109 L0.6517,8.4759 L9.4607,8.4759 L9.4607,9.5219 L4.8847,13.3629 C2.9577,15.0099 2.2547,15.9359 2.2547,17.1359 C2.2547,18.5409 3.4257,19.4329 4.7947,19.4329 C6.2367,19.4329 7.1737,18.7129 8.1817,17.3749" id="2" fill="#E97323"></path>
            <polygon id="W" fill="#E97323" points="44.0972 6.4296 51.1842 14.3076 55.5182 9.6806 61.7052 20.0386 60.7412 20.5606 55.3182 11.4806 51.1672 15.9106 44.4102 8.3996 38.9132 20.5086 37.8952 20.0906"></polygon>
        </g>
    </g>
</svg>