<svg width="84px" height="40px" viewBox="877 478 84 40" version="1.1" xmlns="http://www.w3.org/2000/svg" xmlns:xlink="http://www.w3.org/1999/xlink">
    <g id="truck" stroke="none" stroke-width="1" fill="none" fill-rule="evenodd" transform="translate(878.000000, 478.000000)">
        <path d="M58.895,33.1109 C58.895,36.6869 61.795,39.5859 65.371,39.5859 C68.947,39.5859 71.846,36.6869 71.846,33.1109 C71.846,29.5339 68.947,26.6349 65.371,26.6349 C61.795,26.6349 58.895,29.5339 58.895,33.1109 Z" id="front-wheel" fill="#EFDFAD"></path>
        <path d="M22.371,26.6349 C18.795,26.6349 15.895,29.5339 15.895,33.1109 C15.895,36.6869 18.795,39.5859 22.371,39.5859 C25.947,39.5859 28.846,36.6869 28.846,33.1109 C28.846,29.5339 25.947,26.6349 22.371,26.6349" id="back-wheel" fill="#EFDFAD"></path>
        <path d="M73.1035,13.0016 L63.5517578,0.0537109375 L-0.0005,0.0006 L-0.0005,33.5776 L12.3945,33.5776 C12.3865,33.4216 12.3715,33.2686 12.3715,33.1106 C12.3715,27.5876 16.8475,23.1106 22.3715,23.1106 C27.8935,23.1106 32.3715,27.5876 32.3715,33.1106 C32.3715,33.2686 32.3545,33.4216 32.3465,33.5776 L55.3945,33.5776 C55.3865,33.4216 55.3715,33.2686 55.3715,33.1106 C55.3715,27.5876 59.8475,23.1106 65.3715,23.1106 C70.8935,23.1106 75.3715,27.5876 75.3715,33.1106 C75.3715,33.2686 75.3545,33.4216 75.3465,33.5776 L82.7395,33.5776 L82.7395,13.5556 L73.1035,13.0016 Z" id="truck-body" fill="#EFDFAD"></path>
    </g>
</svg>