<svg width="295px" height="155px" viewBox="534 -289 295 155" version="1.1" xmlns="http://www.w3.org/2000/svg" xmlns:xlink="http://www.w3.org/1999/xlink">
  <g id="events-logo" stroke="none" stroke-width="1" fill="none" fill-rule="evenodd" transform="translate(537.000000, -289.000000)">
    <text id="events" font-family="CenturyGothic, Century Gothic" font-size="82.4491" font-weight="normal" fill="#5B4B42">
      <tspan x="2" y="126">EVENTS</tspan>
    </text>
    <g id="frame" transform="translate(0.000000, 0.925000)">
      <path d="M1.2247,137.6909 L137.4957,137.6909" id="bottom-line" stroke="#E97323" stroke-width="3.771"></path>
      <path d="M0.0001,52.8979 L289.5331,52.8979" id="top-line" stroke="#E97323" stroke-width="4.457"></path>
      <polygon id="Mountain" fill="#E97323" points="114.4998 0.0744 85.7618 33.3354 68.5178 13.3054 45.5228 52.8984 137.4948 52.8984"></polygon>
    </g>
    <g id="this-week" transform="translate(145.000000, 135.925000)" stroke="#5B4B42">
      <polygon id="k" stroke-width="1.201" fill="#5B4B42" points="117.8745 16.5664 119.5065 16.5664 119.5065 9.1114 126.5215 16.5664 128.6515 16.5664 120.3665 7.7424 128.0535 0.5614 125.9045 0.5614 119.5065 6.5674 119.5065 0.5614 117.8745 0.5614"></polygon>
      <polygon id="e" stroke-width="1.201" fill="#5B4B42" points="88.6431 16.5664 97.7501 16.5664 97.7501 14.9994 90.2431 14.9994 90.2431 8.7104 97.7501 8.7104 97.7501 7.1434 90.2431 7.1434 90.2431 2.1284 97.8151 2.1284 97.8151 0.5614 88.6431 0.5614"></polygon>
      <polygon id="e" stroke-width="1.201" fill="#5B4B42" points="103.2642 16.5664 112.3712 16.5664 112.3712 14.9994 104.8642 14.9994 104.8642 8.7104 112.3712 8.7104 112.3712 7.1434 104.8642 7.1434 104.8642 2.1284 112.4362 2.1284 112.4362 0.5614 103.2642 0.5614"></polygon>
      <polyline id="w" stroke-width="2.882" points="58.9796 0.6123 65.6646 12.3673 70.5476 6.8903 78.5196 16.1973 85.2526 0.6123"></polyline>
      <path d="M40.02,16.1909 C40.811,16.7099 41.692,16.9689 42.664,16.9689 C43.926,16.9689 44.998,16.5409 45.879,15.6849 C46.76,14.8289 47.201,13.8209 47.201,12.6599 C47.201,11.8549 46.943,11.0539 46.429,10.2559 C45.914,9.4579 44.963,8.5469 43.578,7.5239 C42.41,6.6619 41.721,6.1279 41.51,5.9249 C41.126,5.5409 40.861,5.1849 40.716,4.8589 C40.571,4.5319 40.499,4.1949 40.499,3.8469 C40.499,3.2739 40.704,2.7919 41.113,2.3999 C41.523,2.0079 42.051,1.8129 42.696,1.8129 C43.197,1.8129 43.659,1.9399 44.084,2.1929 C44.508,2.4469 45.021,2.9729 45.624,3.7709 L46.929,2.7809 C46.196,1.7799 45.502,1.0919 44.845,0.7189 C44.189,0.3449 43.483,0.1579 42.729,0.1579 C42.018,0.1579 41.36,0.3239 40.754,0.6529 C40.148,0.9839 39.679,1.4349 39.345,2.0079 C39.012,2.5809 38.845,3.2159 38.845,3.9119 C38.845,4.7899 39.127,5.6059 39.693,6.3599 C40.02,6.8099 40.851,7.5389 42.185,8.5469 C43.513,9.5479 44.426,10.4039 44.927,11.1149 C45.29,11.6299 45.471,12.1559 45.471,12.6929 C45.471,13.1649 45.348,13.6109 45.101,14.0309 C44.854,14.4519 44.495,14.7879 44.024,15.0379 C43.552,15.2879 43.048,15.4129 42.512,15.4129 C41.256,15.4129 40.15,14.5319 39.193,12.7689 L37.833,13.5849 C38.5,14.8039 39.229,15.6719 40.02,16.1909 Z" id="s" stroke-width="1.201" fill="#5B4B42"></path>
      <polygon id="i" stroke-width="1.201" fill="#5B4B42" points="31.547 16.566 33.146 16.566 33.146 0.561 31.547 0.561"></polygon>
      <polygon id="h" stroke-width="1.201" fill="#5B4B42" points="13.8574 16.5664 15.4574 16.5664 15.4574 8.8414 23.6064 8.8414 23.6064 16.5664 25.2064 16.5664 25.2064 0.5614 23.6064 0.5614 23.6064 7.2744 15.4574 7.2744 15.4574 0.5614 13.8574 0.5614"></polygon>
      <polygon id="t" stroke-width="1.201" fill="#5B4B42" points="3.6973 2.1279 3.6973 16.5659 5.3293 16.5659 5.3293 2.1279 8.8983 2.1279 8.8983 0.5609 0.1283 0.5609 0.1283 2.1279"></polygon>
    </g>
  </g>
</svg>